<svg width="69" height="68" viewBox="0 0 69 68" fill="none" xmlns="http://www.w3.org/2000/svg">
<g clip-path="url(#clip0_209_159)">
<path d="M4.08936 18.9281V11.2424H46.8628V48.3878H4.08936V42.8846V37.1316" fill="white"/>
<path d="M62.6215 57.3928H67.124V48.3878V39.3829H56.9934L54.7422 36.0061V22.4987H63.7471L62.6215 19.1218H46.8629V48.3878H6.3407V57.3928H10.8432" fill="#37424C"/>
<path d="M55.8678 64.1466C59.5978 64.1466 62.6215 61.1228 62.6215 57.3929C62.6215 53.6629 59.5978 50.6392 55.8678 50.6392C52.1379 50.6392 49.1141 53.6629 49.1141 57.3929C49.1141 61.1228 52.1379 64.1466 55.8678 64.1466Z" fill="white"/>
<path d="M16.4712 64.1465C19.5795 64.1465 22.0993 61.6268 22.0993 58.5185C22.0993 55.4102 19.5795 52.8904 16.4712 52.8904C13.3629 52.8904 10.8431 55.4102 10.8431 58.5185C10.8431 61.6268 13.3629 64.1465 16.4712 64.1465Z" fill="white"/>
<path d="M29.9787 64.1465C33.087 64.1465 35.6067 61.6268 35.6067 58.5185C35.6067 55.4102 33.087 52.8904 29.9787 52.8904C26.8704 52.8904 24.3506 55.4102 24.3506 58.5185C24.3506 61.6268 26.8704 64.1465 29.9787 64.1465Z" fill="white"/>
<path d="M62.6215 22.499L67.124 39.3833H56.9934L54.7422 36.0064V22.499H62.6215Z" fill="#3FA9F5"/>
<path d="M55.8677 59.6441C57.111 59.6441 58.1189 58.6362 58.1189 57.3928C58.1189 56.1495 57.111 55.1416 55.8677 55.1416C54.6244 55.1416 53.6165 56.1495 53.6165 57.3928C53.6165 58.6362 54.6244 59.6441 55.8677 59.6441Z" fill="#1A1A1A"/>
<path d="M6.34072 48.3879H1.83826V52.8904H6.34072" fill="white"/>
<path d="M61.4958 42.7598H67.1239V48.3878H61.4958V42.7598Z" fill="#E6E6E6"/>
<path d="M2.96387 24.7503H13.0944C13.716 24.7503 14.22 24.2463 14.22 23.6246C14.22 23.003 13.716 22.499 13.0944 22.499H2.96387C2.34225 22.499 1.83826 23.003 1.83826 23.6246C1.83826 24.2463 2.34225 24.7503 2.96387 24.7503Z" fill="white"/>
<path d="M1.03908 28.9259C1.14854 29.0253 1.27419 29.1052 1.41053 29.1623C1.54588 29.22 1.69123 29.2505 1.83826 29.2524C1.91382 29.2504 1.98895 29.2429 2.06339 29.2299C2.13388 29.2176 2.20226 29.1948 2.266 29.1623C2.33776 29.1377 2.40585 29.1036 2.46861 29.061L2.63745 28.9259C2.73679 28.8165 2.8167 28.6908 2.87383 28.5545C2.93152 28.4191 2.96205 28.2738 2.96388 28.1268C2.95952 27.8287 2.84302 27.5434 2.63745 27.3276L2.46861 27.1925C2.40585 27.1499 2.33776 27.1158 2.266 27.0912C2.20226 27.0587 2.13388 27.0359 2.06339 27.0237C1.84403 26.9776 1.61581 27.0013 1.41053 27.0912C1.27419 27.1483 1.14854 27.2282 1.03908 27.3276C0.83168 27.5421 0.714898 27.8283 0.712646 28.1268C0.714476 28.2738 0.745008 28.4191 0.802696 28.5545C0.857147 28.6922 0.937348 28.8183 1.03908 28.9259Z" fill="white"/>
<path d="M16.4714 27.001H6.34083C5.7192 27.001 5.21521 27.505 5.21521 28.1266C5.21521 28.7482 5.7192 29.2522 6.34083 29.2522H16.4714C17.093 29.2522 17.597 28.7482 17.597 28.1266C17.597 27.505 17.093 27.001 16.4714 27.001Z" fill="white"/>
<path d="M1.83826 33.7549H11.9688C12.5904 33.7549 13.0944 33.2509 13.0944 32.6293C13.0944 32.0077 12.5904 31.5037 11.9688 31.5037H1.83826C1.21664 31.5037 0.712646 32.0077 0.712646 32.6293C0.712646 33.2509 1.21664 33.7549 1.83826 33.7549Z" fill="white"/>
<path d="M15.6723 31.8302C15.5729 31.9396 15.493 32.0653 15.4359 32.2016C15.3782 32.337 15.3477 32.4823 15.3458 32.6294C15.3458 33.251 15.8498 33.755 16.4714 33.755C17.0931 33.755 17.5971 33.251 17.5971 32.6294C17.5952 32.4823 17.5647 32.337 17.507 32.2016C17.4499 32.0653 17.37 31.9396 17.2706 31.8302C16.8193 31.4137 16.1236 31.4137 15.6723 31.8302Z" fill="white"/>
<path d="M56.1942 2.56424C55.7565 3.00562 55.7593 3.71828 56.2007 4.15615C56.6421 4.59387 57.3547 4.59106 57.7926 4.14967C58.2278 3.71082 58.2278 3.00323 57.7926 2.56438C57.3401 2.15044 56.6467 2.15044 56.1942 2.56424Z" fill="white"/>
<path d="M53.6166 3.36341C53.6166 2.74179 53.1127 2.23779 52.491 2.23779H41.2349C40.6132 2.23779 40.1093 2.74179 40.1093 3.36341C40.1093 3.98503 40.6132 4.48903 41.2349 4.48903H52.491C53.1127 4.48903 53.6166 3.98503 53.6166 3.36341Z" fill="white"/>
<path d="M59.2447 8.99107C59.8601 8.99726 60.3641 8.50354 60.3703 7.88811C60.3704 7.88051 60.3704 7.87305 60.3703 7.86545C60.3683 7.79369 60.3609 7.72222 60.3478 7.65159C60.3374 7.57701 60.3146 7.50469 60.2803 7.43772C60.2556 7.36596 60.2216 7.29786 60.179 7.23511C60.1374 7.17615 60.0923 7.11973 60.0439 7.06626C59.5925 6.64979 58.8969 6.64979 58.4455 7.06626L58.3104 7.23511C58.2678 7.29786 58.2338 7.36596 58.2091 7.43772C58.1748 7.50469 58.152 7.57701 58.1416 7.65159C58.1285 7.72222 58.121 7.79369 58.1191 7.86545C58.1129 8.48088 58.6066 8.98488 59.222 8.99107C59.2296 8.99107 59.2371 8.99107 59.2447 8.99107Z" fill="white"/>
<path d="M46.8629 8.99122H54.7422C55.3639 8.99122 55.8679 8.48723 55.8679 7.86561C55.8679 7.24398 55.3639 6.73999 54.7422 6.73999H46.8629C46.2413 6.73999 45.7373 7.24398 45.7373 7.86561C45.7373 8.48723 46.2413 8.99122 46.8629 8.99122Z" fill="white"/>
<path d="M55.8679 54.0161C54.0029 54.0161 52.4911 55.528 52.4911 57.393C52.4911 59.258 54.0029 60.7698 55.8679 60.7698C57.7329 60.7698 59.2448 59.258 59.2448 57.393C59.2448 55.528 57.7329 54.0161 55.8679 54.0161ZM55.8679 58.5186C55.2463 58.5186 54.7423 58.0146 54.7423 57.393C54.7423 56.7713 55.2463 56.2673 55.8679 56.2673C56.4896 56.2673 56.9936 56.7713 56.9936 57.393C56.9936 58.0146 56.4896 58.5186 55.8679 58.5186Z" fill="white"/>
</g>
<defs>
<clipPath id="clip0_209_159">
<rect width="67.537" height="67.537" fill="white" transform="translate(0.712646 0.0129395)"/>
</clipPath>
</defs>
</svg>
