<svg width="69" height="68" viewBox="0 0 69 68" fill="none" xmlns="http://www.w3.org/2000/svg">
<g clip-path="url(#clip0_209_183)">
<path d="M54.8945 3.17871H13.8848C8.31682 3.17871 3.78699 7.70861 3.78699 13.2766V54.2863C3.78699 59.8543 8.31682 64.3841 13.8848 64.3841H54.8945C60.4625 64.3841 64.9924 59.8543 64.9924 54.2863V13.2766C64.9924 7.70861 60.4625 3.17871 54.8945 3.17871ZM33.9933 15.8989C39.0912 15.8989 43.2387 20.0463 43.2387 25.1443C43.2387 30.2422 39.0912 34.3896 33.9933 34.3896C28.8933 34.3896 24.7442 30.2422 24.7442 25.1443C24.7442 20.0463 28.8933 15.8989 33.9933 15.8989ZM50.0886 54.8334H18.6945V53.2505C18.6945 44.5941 25.7353 37.5517 34.3897 37.5517C43.0461 37.5517 50.0886 44.5941 50.0886 53.2505V54.8334Z" fill="white" fill-opacity="0.22"/>
<path d="M54.8945 0.0129395H13.8848C6.57125 0.0129395 0.621216 5.96297 0.621216 13.2766V54.2863C0.621216 61.5999 6.57125 67.5499 13.8848 67.5499H54.8945C62.2082 67.5499 68.1582 61.5999 68.1582 54.2863V13.2766C68.1582 5.96297 62.2082 0.0129395 54.8945 0.0129395ZM64.9924 54.2863C64.9924 59.8543 60.4625 64.3841 54.8945 64.3841H13.8848C8.31684 64.3841 3.78701 59.8543 3.78701 54.2863V13.2766C3.78701 7.70863 8.31684 3.17874 13.8848 3.17874H54.8945C60.4625 3.17874 64.9924 7.70863 64.9924 13.2766V54.2863ZM40.8089 35.5111C44.1771 33.2893 46.4045 29.4723 46.4045 25.1443C46.4045 18.3008 40.8369 12.7331 33.9933 12.7331C27.1478 12.7331 21.5784 18.3008 21.5784 25.1443C21.5784 29.5978 23.9374 33.5102 27.4714 35.7003C20.484 38.4655 15.5287 45.2901 15.5287 53.2506V54.8335H18.6945V53.2506C18.6945 44.5942 25.7354 37.5517 34.3897 37.5517C43.0461 37.5517 50.0886 44.5942 50.0886 53.2506V54.8335H53.2544V53.2506C53.2544 45.1015 48.0602 38.1432 40.8089 35.5111ZM24.7442 25.1443C24.7442 20.0464 28.8934 15.8989 33.9933 15.8989C39.0913 15.8989 43.2387 20.0464 43.2387 25.1443C43.2387 30.2422 39.0913 34.3896 33.9933 34.3896C28.8934 34.3896 24.7442 30.2422 24.7442 25.1443Z" fill="white"/>
</g>
<defs>
<clipPath id="clip0_209_183">
<rect width="67.537" height="67.537" fill="white" transform="translate(0.621216 0.0129395)"/>
</clipPath>
</defs>
</svg>
