<svg width="66" height="67" viewBox="0 0 66 67" fill="none" xmlns="http://www.w3.org/2000/svg">
<path d="M64.7973 15.9873V36.5796C64.7973 38.4429 63.2862 39.9476 61.4293 39.9476H4.71091C2.85404 39.9476 1.3429 38.4429 1.3429 36.5796V5.13412C1.3429 3.27725 2.85404 1.76611 4.71091 1.76611H61.4293C63.2862 1.76611 64.7973 3.27725 64.7973 5.13412V11.0569V15.9873Z" fill="white"/>
<path d="M58.9944 28.3142V13.4024C55.8123 13.4024 53.2387 10.8287 53.2387 7.64673H12.9017C12.9017 10.8287 10.3279 13.4024 7.146 13.4024V28.3144C10.328 28.3144 12.9017 30.888 12.9017 34.0701H53.2387C53.2387 30.888 55.8123 28.3142 58.9944 28.3142Z" fill="white"/>
<path d="M51.0231 23.3095C52.3752 21.9574 52.3752 19.7653 51.0231 18.4132C49.6711 17.0611 47.4789 17.0611 46.1269 18.4132C44.7748 19.7653 44.7748 21.9574 46.1269 23.3095C47.4789 24.6615 49.6711 24.6615 51.0231 23.3095Z" fill="#B3D9FC"/>
<path d="M20.0015 23.3065C21.3536 21.9545 21.3536 19.7623 20.0015 18.4103C18.6495 17.0582 16.4573 17.0582 15.1052 18.4103C13.7532 19.7623 13.7532 21.9545 15.1052 23.3065C16.4573 24.6586 18.6495 24.6586 20.0015 23.3065Z" fill="#B3D9FC"/>
<path d="M47.7729 55.1061H49.6991V48.6542C49.6991 47.6975 50.4747 46.9219 51.4314 46.9219H55.5525C56.5092 46.9219 57.2848 47.6975 57.2848 48.6542V55.1061H59.211C60.2571 55.1061 60.8686 56.2855 60.2657 57.1405L54.5467 65.25C54.0325 65.979 52.9514 65.979 52.4372 65.25L46.7182 57.1405C46.1154 56.2855 46.7268 55.1061 47.7729 55.1061Z" fill="white"/>
<path d="M27.3511 55.1061H29.2772V48.6542C29.2772 47.6975 30.0529 46.9219 31.0096 46.9219H35.1307C36.0874 46.9219 36.863 47.6975 36.863 48.6542V55.1061H38.7891C39.8353 55.1061 40.4468 56.2855 39.8439 57.1405L34.1249 65.25C33.6107 65.979 32.5296 65.979 32.0154 65.25L26.2964 57.1405C25.6934 56.2855 26.3049 55.1061 27.3511 55.1061Z" fill="#A5A5A5"/>
<path d="M6.92911 55.1061H8.85524V48.6542C8.85524 47.6975 9.63086 46.9219 10.5876 46.9219H14.7087C15.6654 46.9219 16.441 47.6975 16.441 48.6542V55.1061H18.3671C19.4133 55.1061 20.0248 56.2855 19.4219 57.1405L13.7029 65.25C13.1887 65.979 12.1076 65.979 11.5934 65.25L5.87438 57.1405C5.27142 56.2855 5.88295 55.1061 6.92911 55.1061Z" fill="white"/>
<path d="M61.4295 0.805664H4.71111C2.32437 0.805664 0.382812 2.74788 0.382812 5.13463V36.5797C0.382812 38.9664 2.32437 40.908 4.71111 40.908H61.4295C63.8163 40.908 65.7578 38.9664 65.7578 36.5797V15.9874C65.7578 15.4571 65.3277 15.0269 64.7974 15.0269C64.2671 15.0269 63.837 15.4571 63.837 15.9874V36.5797C63.837 37.9072 62.757 38.9872 61.4295 38.9872H4.71111C3.38359 38.9872 2.30366 37.9072 2.30366 36.5797V5.13463C2.30366 3.8071 3.38359 2.72664 4.71111 2.72664H61.4295C62.757 2.72664 63.837 3.8071 63.837 5.13463V11.0574C63.837 11.5877 64.2671 12.0179 64.7974 12.0179C65.3277 12.0179 65.7578 11.5877 65.7578 11.0574V5.13463C65.7578 2.74788 63.8163 0.805664 61.4295 0.805664Z" fill="#451F78"/>
<path d="M54.1991 7.64695C54.1991 7.11668 53.7689 6.68652 53.2386 6.68652H12.9018C12.3715 6.68652 11.9414 7.11668 11.9414 7.64695C11.9414 10.2907 9.79033 12.4417 7.14597 12.4417C6.6157 12.4417 6.18555 12.8718 6.18555 13.4021V28.3142C6.18555 28.8445 6.6157 29.2746 7.14597 29.2746C9.79033 29.2746 11.9414 31.4256 11.9414 34.07C11.9414 34.6003 12.3715 35.0304 12.9018 35.0304H53.2386C53.7689 35.0304 54.1991 34.6003 54.1991 34.07C54.1991 31.4256 56.3501 29.2746 58.9944 29.2746C59.5247 29.2746 59.9549 28.8445 59.9549 28.3142V13.4022C59.9549 12.872 59.5247 12.4418 58.9944 12.4418C56.3501 12.4417 54.1991 10.2907 54.1991 7.64695ZM58.034 27.4221C55.0976 27.8449 52.769 30.1734 52.3463 33.1098H13.794C13.3712 30.1734 11.0427 27.8449 8.10626 27.4221V14.2946C11.0427 13.8718 13.3712 11.5433 13.7934 8.6075H52.3468C52.7689 11.5433 55.0975 13.872 58.0339 14.2946V27.4221H58.034Z" fill="#451F78"/>
<path d="M33.0702 15.5682C34.2639 15.5682 35.235 16.5393 35.235 17.733C35.235 18.2633 35.6651 18.6934 36.1954 18.6934C36.7257 18.6934 37.1558 18.2633 37.1558 17.733C37.1558 15.8113 35.8208 14.1997 34.0305 13.766V12.4336C34.0305 11.9033 33.6004 11.4731 33.0701 11.4731C32.5398 11.4731 32.1097 11.9033 32.1097 12.4336V13.766C30.3194 14.1997 28.9844 15.8112 28.9844 17.733C28.9844 18.5165 29.207 19.2782 29.6285 19.9353C30.3851 21.1146 31.6713 21.8187 33.0701 21.8187C34.2637 21.8187 35.2348 22.7898 35.2348 23.9834C35.2348 25.1771 34.2637 26.1482 33.0701 26.1482C31.8765 26.1482 30.9054 25.1771 30.9054 23.9834C30.9054 23.4532 30.4752 23.023 29.9449 23.023C29.4147 23.023 28.9845 23.4532 28.9845 23.9834C28.9845 25.9051 30.3195 27.5167 32.1098 27.9505V29.2829C32.1098 29.8131 32.54 30.2433 33.0702 30.2433C33.6005 30.2433 34.0307 29.8131 34.0307 29.2829V27.9505C35.8209 27.5167 37.156 25.9052 37.156 23.9834C37.156 21.7305 35.3232 19.8977 33.0702 19.8977C32.3293 19.8977 31.6471 19.5244 31.2455 18.8985C31.0229 18.5515 30.9054 18.1481 30.9054 17.733C30.9055 16.5392 31.8766 15.5682 33.0702 15.5682Z" fill="#451F78"/>
<path d="M48.5826 16.4346C46.1433 16.4346 44.1592 18.4186 44.1592 20.858C44.1592 23.2974 46.1432 25.2814 48.5826 25.2814C51.0218 25.2814 53.006 23.2974 53.006 20.858C53.006 18.4186 51.022 16.4346 48.5826 16.4346ZM48.5826 23.3604C47.2026 23.3604 46.0802 22.238 46.0802 20.858C46.0802 19.478 47.2026 18.3555 48.5826 18.3555C49.9626 18.3555 51.085 19.478 51.085 20.858C51.085 22.238 49.9626 23.3604 48.5826 23.3604Z" fill="#451F78"/>
<path d="M17.5579 16.4346C15.1187 16.4346 13.1345 18.4186 13.1345 20.858C13.1345 23.2974 15.1186 25.2814 17.5579 25.2814C19.9972 25.2814 21.9813 23.2974 21.9813 20.858C21.9813 18.4186 19.9972 16.4346 17.5579 16.4346ZM17.5579 23.3604C16.1779 23.3604 15.0555 22.238 15.0555 20.858C15.0555 19.478 16.1779 18.3555 17.5579 18.3555C18.938 18.3555 20.0604 19.478 20.0604 20.858C20.0604 22.238 18.938 23.3604 17.5579 23.3604Z" fill="#451F78"/>
<path d="M59.2109 54.1455H58.2454V48.6542C58.2454 47.1697 57.0374 45.9617 55.5523 45.9617H51.4316C49.9465 45.9617 48.7384 47.1697 48.7384 48.6542V54.1455H47.773C46.9288 54.1455 46.1628 54.6114 45.7746 55.3605C45.3862 56.1103 45.4469 57.0045 45.9334 57.6941L51.6524 65.8042C52.0738 66.4014 52.7616 66.7578 53.492 66.7578H53.4926C54.2237 66.7571 54.9108 66.4007 55.3317 65.8036L61.0507 57.6941C61.5372 57.0044 61.5979 56.1103 61.2095 55.3605C60.8211 54.6113 60.0551 54.1455 59.2109 54.1455ZM59.481 56.5873L53.762 64.6967C53.6764 64.8181 53.5562 64.8361 53.4925 64.8368C53.4281 64.8368 53.3081 64.8181 53.2217 64.6967L47.5027 56.5873C47.402 56.4447 47.4452 56.3114 47.4796 56.2446C47.5146 56.1782 47.5984 56.0664 47.7728 56.0664H49.6987C50.229 56.0664 50.6591 55.6362 50.6591 55.1059V48.654C50.6591 48.2289 51.0055 47.8824 51.4313 47.8824H55.552C55.9778 47.8824 56.3242 48.2288 56.3242 48.654V55.1059C56.3242 55.6362 56.7543 56.0664 57.2846 56.0664H59.2105C59.385 56.0664 59.4687 56.1784 59.5037 56.2446C59.5385 56.3116 59.5816 56.4447 59.481 56.5873Z" fill="#451F78"/>
<path d="M38.7892 54.1455H37.8238V48.6542C37.8238 47.1697 36.6158 45.9617 35.1306 45.9617H31.0093C29.5248 45.9617 28.3168 47.1697 28.3168 48.6542V54.1455H27.3513C26.5071 54.1455 25.7411 54.6114 25.3529 55.3605C24.9646 56.1103 25.0253 57.0045 25.5117 57.6941L31.2308 65.8036C31.6515 66.4007 32.3394 66.7578 33.0698 66.7578C33.8009 66.7578 34.4886 66.4007 34.9094 65.8036L40.6291 57.6941C41.1156 57.0044 41.1762 56.1103 40.7879 55.3605C40.3993 54.6113 39.6333 54.1455 38.7892 54.1455ZM39.0594 56.5873L33.3397 64.6967C33.2534 64.8181 33.1339 64.8368 33.0696 64.8368C33.0057 64.8368 32.8863 64.8181 32.8001 64.6967L27.0811 56.5873C26.9804 56.4447 27.0235 56.3114 27.058 56.2446C27.0929 56.1782 27.1768 56.0664 27.3512 56.0664H29.2771C29.8073 56.0664 30.2375 55.6362 30.2375 55.1059V48.654C30.2375 48.2289 30.5839 47.8824 31.0091 47.8824H35.1305C35.5563 47.8824 35.9027 48.2288 35.9027 48.654V55.1059C35.9027 55.6362 36.3328 56.0664 36.8631 56.0664H38.789C38.9635 56.0664 39.0472 56.1784 39.0822 56.2446C39.1169 56.3116 39.16 56.4447 39.0594 56.5873Z" fill="#451F78"/>
<path d="M18.3675 54.1455H17.4014V48.6542C17.4014 47.1697 16.1934 45.9617 14.7089 45.9617H10.5875C9.10297 45.9617 7.89496 47.1697 7.89496 48.6542V54.1455H6.92886C6.08465 54.1455 5.31866 54.6114 4.93045 55.361C4.54225 56.1107 4.60279 57.005 5.08993 57.694L10.8089 65.8034C11.2297 66.4006 11.9176 66.7577 12.6485 66.7577C13.3789 66.7577 14.0667 66.4006 14.4876 65.8034L20.2066 57.694C20.6931 57.0042 20.7544 56.1102 20.3654 55.3604C19.977 54.6108 19.2116 54.1455 18.3675 54.1455ZM18.637 56.5873L12.918 64.6967C12.8318 64.8181 12.7122 64.8368 12.6485 64.8368C12.5842 64.8368 12.4647 64.8181 12.3784 64.6967L6.65937 56.5866C6.55873 56.444 6.6012 56.3114 6.63629 56.2446C6.67072 56.1782 6.75448 56.0664 6.92899 56.0664H8.85551C9.38578 56.0664 9.81593 55.6362 9.81593 55.1059V48.654C9.81593 48.2289 10.1623 47.8824 10.5876 47.8824H14.7089C15.1341 47.8824 15.4806 48.2288 15.4806 48.654V55.1059C15.4806 55.6362 15.9108 56.0664 16.441 56.0664H18.3675C18.5421 56.0664 18.6258 56.1777 18.6602 56.2446C18.6945 56.3109 18.7377 56.444 18.637 56.5873Z" fill="#451F78"/>
</svg>
