<svg width="34" height="54" viewBox="0 0 34 54" fill="none" xmlns="http://www.w3.org/2000/svg">
<path d="M16.6794 53.1546C16.454 53.1525 16.2458 53.0312 16.1301 52.8346C6.24144 36.0335 0.329102 26.4329 0.329102 17.0708C0.329102 8.0624 7.64182 0.408936 16.6625 0.408936H16.6852H16.6857H16.7085C25.7291 0.408936 33.0419 8.06241 33.0419 17.0708C33.0419 26.4329 27.1295 36.0335 17.2409 52.8346C17.1229 53.035 16.9092 53.1569 16.6794 53.1546Z" fill="white"/>
<path d="M16.7084 26.5644C21.8039 26.5644 25.9346 22.367 25.9346 17.1892C25.9346 12.0114 21.8039 7.81396 16.7084 7.81396C11.6129 7.81396 7.48218 12.0114 7.48218 17.1892C7.48218 22.367 11.6129 26.5644 16.7084 26.5644Z" fill="#636C73"/>
</svg>
