<svg width="76" height="64" viewBox="0 0 76 64" fill="none" xmlns="http://www.w3.org/2000/svg">
<path fill-rule="evenodd" clip-rule="evenodd" d="M0.0129089 8.2645C0.0129089 4.003 3.46754 0.54837 7.72904 0.54837H68.271C72.5325 0.54837 75.9871 4.003 75.9871 8.2645V55.7484C75.9871 60.0099 72.5325 63.4645 68.271 63.4645H7.72904C3.46754 63.4645 0.0129089 60.0099 0.0129089 55.7484V8.2645ZM7.72904 4.10966C5.43438 4.10966 3.5742 5.96985 3.5742 8.2645V55.7484C3.5742 58.043 5.43438 59.9032 7.72904 59.9032H68.271C70.5656 59.9032 72.4258 58.043 72.4258 55.7484V8.2645C72.4258 5.96985 70.5656 4.10966 68.271 4.10966H7.72904Z" fill="#E7ECFC"/>
<ellipse cx="17.8194" cy="17.1677" rx="7.71613" ry="7.71613" fill="#E7ECFC"/>
<path d="M10.1032 50.4806V46.0172C10.1032 45.4072 10.3455 44.8222 10.7769 44.3908L21.017 34.1507C21.8851 33.2826 23.2821 33.2493 24.1905 34.0752L27.4968 37.0809C28.3959 37.8983 29.7759 37.8752 30.6472 37.0281L48.8385 19.3421C49.7402 18.4655 51.1788 18.4756 52.0681 19.3649L66.4102 33.707C66.8416 34.1383 67.0839 34.7233 67.0839 35.3333V50.4806C67.0839 51.7509 66.0541 52.7806 64.7839 52.7806H12.4032C11.133 52.7806 10.1032 51.7509 10.1032 50.4806Z" fill="#E7ECFC"/>
</svg>
