<svg width="65" height="64" viewBox="0 0 65 64" fill="none" xmlns="http://www.w3.org/2000/svg">
<g clip-path="url(#clip0_75_1131)">
<path d="M3.69995 17.9243V10.6411H44.2333V45.8411H3.69995V40.6262V35.1744" fill="#FF0000"/>
<path d="M59.1667 54.3746H63.4334V45.8412V37.3079H53.8334L51.7 34.1079V21.3079H60.2334L59.1667 18.1079H44.2334V45.8412H5.83337V54.3746H10.1" fill="#F2937F"/>
<path d="M52.7667 60.7746C56.3013 60.7746 59.1667 57.9092 59.1667 54.3746C59.1667 50.84 56.3013 47.9746 52.7667 47.9746C49.2321 47.9746 46.3667 50.84 46.3667 54.3746C46.3667 57.9092 49.2321 60.7746 52.7667 60.7746Z" fill="#333333"/>
<path d="M15.4333 60.7746C18.3788 60.7746 20.7666 58.3868 20.7666 55.4412C20.7666 52.4957 18.3788 50.1079 15.4333 50.1079C12.4878 50.1079 10.1 52.4957 10.1 55.4412C10.1 58.3868 12.4878 60.7746 15.4333 60.7746Z" fill="#333333"/>
<path d="M28.2334 60.7746C31.1789 60.7746 33.5667 58.3868 33.5667 55.4412C33.5667 52.4957 31.1789 50.1079 28.2334 50.1079C25.2878 50.1079 22.9 52.4957 22.9 55.4412C22.9 58.3868 25.2878 60.7746 28.2334 60.7746Z" fill="#333333"/>
<path d="M59.1666 21.3081L63.4333 37.3081H53.8333L51.7 34.1081V21.3081H59.1666Z" fill="#3FA9F5"/>
<path d="M52.7666 56.5079C53.9448 56.5079 54.9 55.5528 54.9 54.3745C54.9 53.1963 53.9448 52.2412 52.7666 52.2412C51.5884 52.2412 50.6333 53.1963 50.6333 54.3745C50.6333 55.5528 51.5884 56.5079 52.7666 56.5079Z" fill="#1A1A1A"/>
<path d="M5.83332 45.8413H1.56665V50.108H5.83332" fill="#ED1C24"/>
<path d="M58.1 40.5078H63.4333V45.8411H58.1V40.5078Z" fill="#E6E6E6"/>
<path d="M2.63332 23.4414H12.2333C12.8224 23.4414 13.3 22.9638 13.3 22.3748C13.3 21.7857 12.8224 21.3081 12.2333 21.3081H2.63332C2.04425 21.3081 1.56665 21.7857 1.56665 22.3748C1.56665 22.9638 2.04425 23.4414 2.63332 23.4414Z" fill="black"/>
<path d="M0.809333 27.3986C0.913067 27.4927 1.03213 27.5685 1.16133 27.6226C1.2896 27.6773 1.42733 27.7062 1.56667 27.7079C1.63827 27.7061 1.70947 27.699 1.78 27.6866C1.8468 27.675 1.9116 27.6534 1.972 27.6226C2.04 27.5993 2.10453 27.567 2.164 27.5266L2.324 27.3986C2.41813 27.2949 2.49387 27.1758 2.548 27.0466C2.60267 26.9183 2.6316 26.7806 2.63333 26.6413C2.6292 26.3589 2.5188 26.0885 2.324 25.8839L2.164 25.7559C2.10453 25.7155 2.04 25.6833 1.972 25.6599C1.9116 25.6291 1.8468 25.6075 1.78 25.5959C1.57213 25.5523 1.35587 25.5747 1.16133 25.6599C1.03213 25.7141 0.913067 25.7898 0.809333 25.8839C0.6128 26.0873 0.502133 26.3585 0.5 26.6413C0.501733 26.7806 0.530667 26.9183 0.585333 27.0466C0.636933 27.1771 0.712933 27.2966 0.809333 27.3986Z" fill="black"/>
<path d="M15.4334 25.5747H5.83339C5.24432 25.5747 4.76672 26.0523 4.76672 26.6414C4.76672 27.2304 5.24432 27.708 5.83339 27.708H15.4334C16.0225 27.708 16.5001 27.2304 16.5001 26.6414C16.5001 26.0523 16.0225 25.5747 15.4334 25.5747Z" fill="black"/>
<path d="M1.56667 31.9746H11.1667C11.7557 31.9746 12.2333 31.497 12.2333 30.908C12.2333 30.3189 11.7557 29.8413 11.1667 29.8413H1.56667C0.9776 29.8413 0.5 30.3189 0.5 30.908C0.5 31.497 0.9776 31.9746 1.56667 31.9746Z" fill="black"/>
<path d="M14.676 30.1505C14.5819 30.2542 14.5062 30.3733 14.452 30.5025C14.3974 30.6308 14.3684 30.7685 14.3667 30.9078C14.3667 31.4969 14.8443 31.9745 15.4334 31.9745C16.0224 31.9745 16.5 31.4969 16.5 30.9078C16.4983 30.7685 16.4694 30.6308 16.4147 30.5025C16.3606 30.3733 16.2848 30.2542 16.1907 30.1505C15.763 29.7558 15.1038 29.7558 14.676 30.1505Z" fill="black"/>
<path d="M53.0759 2.41713C52.6611 2.8354 52.6638 3.51073 53.0821 3.92566C53.5003 4.34046 54.1757 4.3378 54.5906 3.91953C55.003 3.50366 55.003 2.83313 54.5906 2.41726C54.1618 2.025 53.5047 2.025 53.0759 2.41713Z" fill="black"/>
<path d="M50.6334 3.17458C50.6334 2.58551 50.1558 2.10791 49.5667 2.10791H38.9C38.311 2.10791 37.8334 2.58551 37.8334 3.17458C37.8334 3.76364 38.311 4.24124 38.9 4.24124H49.5667C50.1558 4.24124 50.6334 3.76364 50.6334 3.17458Z" fill="black"/>
<path d="M55.9666 8.50818C56.5498 8.51405 57.0274 8.04618 57.0333 7.46298C57.0334 7.45578 57.0334 7.44872 57.0333 7.44152C57.0314 7.37352 57.0244 7.30578 57.012 7.23885C57.0021 7.16818 56.9805 7.09965 56.948 7.03618C56.9246 6.96818 56.8924 6.90365 56.852 6.84418C56.8126 6.78832 56.7698 6.73485 56.724 6.68418C56.2962 6.28952 55.637 6.28952 55.2093 6.68418L55.0813 6.84418C55.0409 6.90365 55.0086 6.96818 54.9853 7.03618C54.9528 7.09965 54.9312 7.16818 54.9213 7.23885C54.9089 7.30578 54.9018 7.37352 54.9 7.44152C54.8941 8.02472 55.362 8.50232 55.9452 8.50818C55.9524 8.50818 55.9594 8.50818 55.9666 8.50818Z" fill="black"/>
<path d="M44.2333 8.50785H51.7C52.289 8.50785 52.7666 8.03025 52.7666 7.44118C52.7666 6.85211 52.289 6.37451 51.7 6.37451H44.2333C43.6442 6.37451 43.1666 6.85211 43.1666 7.44118C43.1666 8.03025 43.6442 8.50785 44.2333 8.50785Z" fill="black"/>
<path d="M52.7667 51.1748C50.9993 51.1748 49.5667 52.6075 49.5667 54.3748C49.5667 56.1421 50.9993 57.5748 52.7667 57.5748C54.534 57.5748 55.9667 56.1421 55.9667 54.3748C55.9667 52.6075 54.534 51.1748 52.7667 51.1748ZM52.7667 55.4415C52.1776 55.4415 51.7 54.9639 51.7 54.3748C51.7 53.7857 52.1776 53.3081 52.7667 53.3081C53.3557 53.3081 53.8333 53.7857 53.8333 54.3748C53.8333 54.9639 53.3557 55.4415 52.7667 55.4415Z" fill="black"/>
</g>
<defs>
<clipPath id="clip0_75_1131">
<rect width="64" height="64" fill="white" transform="translate(0.5)"/>
</clipPath>
</defs>
</svg>
