<svg width="65" height="64" viewBox="0 0 65 64" fill="none" xmlns="http://www.w3.org/2000/svg">
<g clip-path="url(#clip0_75_1155)">
<path d="M51.931 3H13.069C7.7926 3 3.5 7.29266 3.5 12.569V51.431C3.5 56.7074 7.7926 61 13.069 61H51.931C57.2073 61 61.5 56.7074 61.5 51.431V12.569C61.5 7.29266 57.2073 3 51.931 3ZM32.1244 15.054C36.9553 15.054 40.8856 18.9843 40.8856 23.8152C40.8856 28.6461 36.9553 32.5764 32.1244 32.5764C27.2915 32.5764 23.3597 28.6461 23.3597 23.8152C23.3597 18.9843 27.2915 15.054 32.1244 15.054ZM47.3767 51.9495H17.6268V50.4495C17.6268 42.2465 24.2989 35.5728 32.5 35.5728C40.7031 35.5728 47.3767 42.2465 47.3767 50.4495V51.9495Z" fill="#F2937F" fill-opacity="0.22"/>
<path d="M51.931 0H13.069C6.13843 0 0.5 5.63842 0.5 12.569V51.431C0.5 58.3616 6.13843 64 13.069 64H51.931C58.8616 64 64.5 58.3616 64.5 51.431V12.569C64.5 5.63842 58.8616 0 51.931 0ZM61.5 51.431C61.5 56.7074 57.2073 61 51.931 61H13.069C7.7926 61 3.5 56.7074 3.5 51.431V12.569C3.5 7.29266 7.7926 3 13.069 3H51.931C57.2073 3 61.5 7.29266 61.5 12.569V51.431ZM38.583 33.6391C41.7748 31.5337 43.8856 27.9166 43.8856 23.8152C43.8856 17.3301 38.6095 12.054 32.1244 12.054C25.6373 12.054 20.3597 17.3301 20.3597 23.8152C20.3597 28.0354 22.5951 31.743 25.944 33.8184C19.3226 36.4388 14.6268 42.9059 14.6268 50.4495V51.9495H17.6268V50.4495C17.6268 42.2465 24.2989 35.5728 32.5 35.5728C40.703 35.5728 47.3767 42.2465 47.3767 50.4495V51.9495H50.3767V50.4495C50.3767 42.7272 45.4546 36.1334 38.583 33.6391ZM23.3597 23.8152C23.3597 18.9842 27.2915 15.054 32.1244 15.054C36.9553 15.054 40.8856 18.9842 40.8856 23.8152C40.8856 28.6461 36.9553 32.5764 32.1244 32.5764C27.2915 32.5764 23.3597 28.6461 23.3597 23.8152Z" fill="#FF0000"/>
</g>
<defs>
<clipPath id="clip0_75_1155">
<rect width="64" height="64" fill="white" transform="translate(0.5)"/>
</clipPath>
</defs>
</svg>
