<svg width="65" height="64" viewBox="0 0 65 64" fill="none" xmlns="http://www.w3.org/2000/svg">
<path d="M62.5656 15.1375V34.6514C62.5656 36.4171 61.1336 37.843 59.374 37.843H5.62595C3.86633 37.843 2.43433 36.4171 2.43433 34.6514V4.85276C2.43433 3.09313 3.86633 1.66113 5.62595 1.66113H59.374C61.1336 1.66113 62.5656 3.09313 62.5656 4.85276V10.4654V15.1375Z" fill="#FF0000"/>
<path d="M57.0665 26.819V12.6881C54.0511 12.6881 51.6122 10.2493 51.6122 7.23389H13.3877C13.3877 10.2493 10.9487 12.6881 7.93347 12.6881V26.8191C10.9488 26.8191 13.3877 29.258 13.3877 32.2734H51.6122C51.6122 29.258 54.0511 26.819 57.0665 26.819Z" fill="white"/>
<path d="M49.5128 22.0768C50.794 20.7955 50.794 18.7182 49.5128 17.4369C48.2315 16.1556 46.1542 16.1556 44.8729 17.4369C43.5916 18.7182 43.5916 20.7955 44.8729 22.0768C46.1542 23.358 48.2315 23.358 49.5128 22.0768Z" fill="#B3D9FC"/>
<path d="M20.1158 22.0734C21.3971 20.7921 21.3971 18.7147 20.1158 17.4335C18.8345 16.1522 16.7572 16.1522 15.4759 17.4335C14.1947 18.7147 14.1947 20.7921 15.4759 22.0734C16.7572 23.3546 18.8345 23.3546 20.1158 22.0734Z" fill="#B3D9FC"/>
<path d="M46.4326 52.2078H48.2579V46.0938C48.2579 45.1871 48.9929 44.4521 49.8995 44.4521H53.8048C54.7114 44.4521 55.4464 45.1871 55.4464 46.0938V52.2078H57.2716C58.263 52.2078 58.8425 53.3254 58.2711 54.1356L52.8516 61.8204C52.3644 62.5113 51.3399 62.5113 50.8526 61.8204L45.4331 54.1356C44.8619 53.3254 45.4413 52.2078 46.4326 52.2078Z" fill="white"/>
<path d="M27.0804 52.2078H28.9056V46.0938C28.9056 45.1871 29.6406 44.4521 30.5473 44.4521H34.4525C35.3591 44.4521 36.0941 45.1871 36.0941 46.0938V52.2078H37.9194C38.9108 52.2078 39.4903 53.3254 38.9189 54.1356L33.4994 61.8204C33.0121 62.5113 31.9876 62.5113 31.5004 61.8204L26.0809 54.1356C25.5095 53.3254 26.089 52.2078 27.0804 52.2078Z" fill="#FFA185"/>
<path d="M7.72798 52.2078H9.55323V46.0938C9.55323 45.1871 10.2882 44.4521 11.1949 44.4521H15.1001C16.0067 44.4521 16.7417 45.1871 16.7417 46.0938V52.2078H18.567C19.5584 52.2078 20.1379 53.3254 19.5665 54.1356L14.147 61.8204C13.6597 62.5113 12.6352 62.5113 12.148 61.8204L6.72848 54.1356C6.15711 53.3254 6.73661 52.2078 7.72798 52.2078Z" fill="white"/>
<path d="M59.374 0.750977H5.62604C3.36429 0.750977 1.52441 2.59148 1.52441 4.85323V34.6515C1.52441 36.9132 3.36429 38.7531 5.62604 38.7531H59.374C61.6358 38.7531 63.4757 36.9132 63.4757 34.6515V15.1376C63.4757 14.6351 63.068 14.2275 62.5655 14.2275C62.063 14.2275 61.6554 14.6351 61.6554 15.1376V34.6515C61.6554 35.9095 60.632 36.9329 59.374 36.9329H5.62604C4.36804 36.9329 3.34466 35.9095 3.34466 34.6515V4.85323C3.34466 3.59523 4.36804 2.57135 5.62604 2.57135H59.374C60.632 2.57135 61.6554 3.59523 61.6554 4.85323V10.4659C61.6554 10.9684 62.063 11.376 62.5655 11.376C63.068 11.376 63.4757 10.9684 63.4757 10.4659V4.85323C63.4757 2.59148 61.6358 0.750977 59.374 0.750977Z" fill="#451F78"/>
<path d="M52.5224 7.23434C52.5224 6.73184 52.1148 6.32422 51.6123 6.32422H13.3879C12.8854 6.32422 12.4778 6.73184 12.4778 7.23434C12.4778 9.73959 10.4394 11.778 7.93356 11.778C7.43106 11.778 7.02344 12.1856 7.02344 12.6881V26.8192C7.02344 27.3217 7.43106 27.7293 7.93356 27.7293C10.4394 27.7293 12.4778 29.7677 12.4778 32.2736C12.4778 32.7761 12.8854 33.1837 13.3879 33.1837H51.6123C52.1148 33.1837 52.5224 32.7761 52.5224 32.2736C52.5224 29.7677 54.5608 27.7293 57.0667 27.7293C57.5692 27.7293 57.9768 27.3217 57.9768 26.8192V12.6882C57.9768 12.1857 57.5692 11.7781 57.0667 11.7781C54.5608 11.778 52.5224 9.73959 52.5224 7.23434ZM56.1566 25.9738C53.3739 26.3745 51.1673 28.5811 50.7667 31.3637H14.2334C13.8328 28.5811 11.6262 26.3745 8.84356 25.9738V13.5338C11.6262 13.1332 13.8328 10.9266 14.2328 8.14459H50.7672C51.1672 10.9266 53.3738 13.1333 56.1564 13.5338V25.9738H56.1566Z" fill="#451F78"/>
<path d="M32.5 14.7405C33.6312 14.7405 34.5514 15.6607 34.5514 16.7919C34.5514 17.2944 34.959 17.702 35.4615 17.702C35.964 17.702 36.3717 17.2944 36.3717 16.7919C36.3717 14.9709 35.1065 13.4436 33.41 13.0326V11.77C33.41 11.2675 33.0024 10.8599 32.4999 10.8599C31.9974 10.8599 31.5898 11.2675 31.5898 11.77V13.0326C29.8933 13.4436 28.6282 14.9707 28.6282 16.7919C28.6282 17.5344 28.8392 18.2561 29.2386 18.8789C29.9556 19.9964 31.1744 20.6636 32.4999 20.6636C33.631 20.6636 34.5513 21.5839 34.5513 22.715C34.5513 23.8461 33.631 24.7664 32.4999 24.7664C31.3688 24.7664 30.4485 23.8461 30.4485 22.715C30.4485 22.2125 30.0409 21.8049 29.5384 21.8049C29.0359 21.8049 28.6283 22.2125 28.6283 22.715C28.6283 24.536 29.8934 26.0632 31.5899 26.4742V27.7369C31.5899 28.2394 31.9975 28.647 32.5 28.647C33.0025 28.647 33.4102 28.2394 33.4102 27.7369V26.4742C35.1067 26.0632 36.3718 24.5361 36.3718 22.715C36.3718 20.58 34.635 18.8432 32.5 18.8432C31.7979 18.8432 31.1514 18.4895 30.7709 17.8964C30.5599 17.5675 30.4485 17.1852 30.4485 16.7919C30.4487 15.6606 31.3689 14.7405 32.5 14.7405Z" fill="#451F78"/>
<path d="M47.2 15.562C44.8886 15.562 43.0083 17.4421 43.0083 19.7538C43.0083 22.0654 44.8884 23.9455 47.2 23.9455C49.5115 23.9455 51.3918 22.0654 51.3918 19.7538C51.3918 17.4421 49.5117 15.562 47.2 15.562ZM47.2 22.1251C45.8923 22.1251 44.8287 21.0615 44.8287 19.7538C44.8287 18.446 45.8923 17.3824 47.2 17.3824C48.5078 17.3824 49.5714 18.446 49.5714 19.7538C49.5714 21.0615 48.5078 22.1251 47.2 22.1251Z" fill="#451F78"/>
<path d="M17.8 15.562C15.4885 15.562 13.6083 17.4421 13.6083 19.7538C13.6083 22.0654 15.4884 23.9455 17.8 23.9455C20.1115 23.9455 21.9918 22.0654 21.9918 19.7538C21.9918 17.4421 20.1115 15.562 17.8 15.562ZM17.8 22.1251C16.4923 22.1251 15.4287 21.0615 15.4287 19.7538C15.4287 18.446 16.4923 17.3824 17.8 17.3824C19.1078 17.3824 20.1714 18.446 20.1714 19.7538C20.1714 21.0615 19.1078 22.1251 17.8 22.1251Z" fill="#451F78"/>
<path d="M57.2717 51.2972H56.3568V46.0935C56.3568 44.6867 55.2121 43.542 53.8047 43.542H49.8998C48.4926 43.542 47.3477 44.6867 47.3477 46.0935V51.2972H46.4328C45.6328 51.2972 44.907 51.7387 44.5391 52.4486C44.1711 53.1591 44.2286 54.0065 44.6896 54.66L50.1091 62.3454C50.5085 62.9112 51.1602 63.249 51.8523 63.249H51.853C52.5457 63.2484 53.1968 62.9106 53.5957 62.3447L59.0152 54.66C59.4762 54.0064 59.5337 53.1591 59.1657 52.4486C58.7976 51.7386 58.0717 51.2972 57.2717 51.2972ZM57.5277 53.6111L52.1082 61.2959C52.0271 61.4109 51.9132 61.428 51.8528 61.4286C51.7918 61.4286 51.6781 61.4109 51.5962 61.2959L46.1767 53.6111C46.0813 53.476 46.1222 53.3497 46.1548 53.2864C46.188 53.2235 46.2675 53.1175 46.4327 53.1175H48.2577C48.7602 53.1175 49.1678 52.7099 49.1678 52.2074V46.0934C49.1678 45.6905 49.4961 45.3621 49.8996 45.3621H53.8045C54.208 45.3621 54.5362 45.6904 54.5362 46.0934V52.2074C54.5362 52.7099 54.9438 53.1175 55.4463 53.1175H57.2713C57.4367 53.1175 57.5161 53.2236 57.5492 53.2864C57.5822 53.3499 57.6231 53.476 57.5277 53.6111Z" fill="#451F78"/>
<path d="M37.9195 51.2972H37.0047V46.0935C37.0047 44.6867 35.8599 43.542 34.4525 43.542H30.547C29.1403 43.542 27.9955 44.6867 27.9955 46.0935V51.2972H27.0807C26.2807 51.2972 25.5548 51.7387 25.1869 52.4486C24.8189 53.1591 24.8764 54.0065 25.3374 54.66L30.7569 62.3447C31.1557 62.9106 31.8075 63.249 32.4997 63.249C33.1924 63.249 33.8442 62.9106 34.2429 62.3447L39.663 54.66C40.124 54.0064 40.1816 53.1591 39.8135 52.4486C39.4453 51.7386 38.7194 51.2972 37.9195 51.2972ZM38.1755 53.6111L32.7554 61.2959C32.6737 61.4109 32.5604 61.4286 32.4994 61.4286C32.4389 61.4286 32.3258 61.4109 32.244 61.2959L26.8245 53.6111C26.7292 53.476 26.77 53.3497 26.8027 53.2864C26.8358 53.2235 26.9153 53.1175 27.0805 53.1175H28.9055C29.408 53.1175 29.8157 52.7099 29.8157 52.2074V46.0934C29.8157 45.6905 30.1439 45.3621 30.5469 45.3621H34.4524C34.8559 45.3621 35.1842 45.6904 35.1842 46.0934V52.2074C35.1842 52.7099 35.5918 53.1175 36.0943 53.1175H37.9193C38.0847 53.1175 38.1641 53.2236 38.1972 53.2864C38.2301 53.3499 38.2709 53.476 38.1755 53.6111Z" fill="#451F78"/>
<path d="M18.5674 51.2972H17.6519V46.0935C17.6519 44.6867 16.5072 43.542 15.1004 43.542H11.1948C9.78804 43.542 8.64329 44.6867 8.64329 46.0935V51.2972H7.72779C6.92779 51.2972 6.20191 51.7387 5.83404 52.4491C5.46616 53.1595 5.52354 54.007 5.98516 54.6599L11.4047 62.3446C11.8034 62.9105 12.4553 63.2489 13.1479 63.2489C13.84 63.2489 14.4918 62.9105 14.8907 62.3446L20.3102 54.6599C20.7712 54.0062 20.8293 53.159 20.4607 52.4485C20.0925 51.7381 19.3673 51.2972 18.5674 51.2972ZM18.8228 53.6111L13.4033 61.2959C13.3215 61.4109 13.2083 61.4286 13.1479 61.4286C13.0869 61.4286 12.9737 61.4109 12.8919 61.2959L7.47241 53.6105C7.37704 53.4754 7.41729 53.3497 7.45054 53.2864C7.48316 53.2235 7.56254 53.1175 7.72791 53.1175H9.55354C10.056 53.1175 10.4637 52.7099 10.4637 52.2074V46.0934C10.4637 45.6905 10.7919 45.3621 11.1949 45.3621H15.1004C15.5033 45.3621 15.8317 45.6904 15.8317 46.0934V52.2074C15.8317 52.7099 16.2393 53.1175 16.7418 53.1175H18.5674C18.7328 53.1175 18.8122 53.223 18.8448 53.2864C18.8773 53.3492 18.9182 53.4754 18.8228 53.6111Z" fill="#451F78"/>
</svg>
