<svg width="33" height="52" viewBox="0 0 33 52" fill="none" xmlns="http://www.w3.org/2000/svg">
<g clip-path="url(#clip0_75_1102)">
<path d="M27.8222 5.34442C26.351 3.83157 24.6427 2.64185 22.745 1.80833C20.7684 0.940176 18.6746 0.5 16.5218 0.5H16.4782C14.3254 0.5 12.2316 0.940176 10.255 1.80833C8.35724 2.64185 6.64902 3.83157 5.17782 5.34442C3.71351 6.85016 2.56222 8.59517 1.7559 10.531C0.922558 12.5317 0.5 14.6401 0.5 16.7976C0.5 20.8774 1.63707 25.1373 4.18684 30.6099C6.55633 35.6956 9.9846 41.5134 14.3249 48.879C14.724 49.5561 15.1305 50.246 15.5444 50.9493C15.7422 51.2852 16.1043 51.4962 16.4895 51.5C16.493 51.5 16.4964 51.5 16.4999 51.5C16.8898 51.5 17.2552 51.2897 17.4556 50.9493C17.8695 50.2461 18.276 49.5562 18.675 48.8791C23.0154 41.5135 26.4436 35.6957 28.8131 30.61C31.3629 25.1373 32.5 20.8774 32.5 16.7976C32.5 14.6401 32.0775 12.5317 31.2441 10.531C30.4378 8.59517 29.2865 6.85016 27.8222 5.34442Z" fill="#03041E"/>
<path d="M16.4942 50.9917C16.2806 50.9896 16.0834 50.8746 15.9737 50.6884C6.60295 34.7672 1.00024 25.6694 1.00024 16.7976C1.00024 8.26094 7.92998 1.0083 16.4782 1.0083H16.4998H16.5003H16.5218C25.0701 1.0083 31.9998 8.26096 31.9998 16.7976C31.9998 25.6693 26.3971 34.7672 17.0263 50.6883C16.9145 50.8782 16.712 50.9938 16.4942 50.9917Z" fill="#F71959"/>
<path d="M16.5218 25.7939C21.3504 25.7939 25.2648 21.8163 25.2648 16.9096C25.2648 12.003 21.3504 8.02539 16.5218 8.02539C11.6931 8.02539 7.77875 12.003 7.77875 16.9096C7.77875 21.8163 11.6931 25.7939 16.5218 25.7939Z" fill="#FFFAF3"/>
</g>
<defs>
<clipPath id="clip0_75_1102">
<rect width="32" height="51" fill="white" transform="translate(0.5 0.5)"/>
</clipPath>
</defs>
</svg>
